# xmcd
#
# Track frame offsets: 
#        150
#        15015
#        28242
#        45066
#        58697
#        70706
#        85479
#        100846
#        117939
#        131315
#        154288
#
# Disc length: 2296 seconds
#
# Revision: 5
# Processed by: cddbd v1.5.2PL0 Copyright (c) Steve Scherf et al.
# Submitted via: ExactAudioCopyFreeDBPlugin 1.0
#
DISCID=7e08f60b
DTITLE=Rosanne Cash - The River and The Thread
DYEAR=2014
DGENRE=Country
TTITLE0=A Feather's Not A Bird
TTITLE1=The Sunken Lands
TTITLE2=Etta's Tune
TTITLE3=Modern Blue
TTITLE4=Tell Heaven
TTITLE5=The Long Way Home
TTITLE6=World Of Strange Design
TTITLE7=Night School
TTITLE8=50,000 Watts
TTITLE9=When The Master Calls The Roll
TTITLE10=Money Road
EXTD=YEAR: 2014
EXTT0=
EXTT1=
EXTT2=
EXTT3=
EXTT4=
EXTT5=
EXTT6=
EXTT7=
EXTT8=
EXTT9=
EXTT10=
PLAYORDER=
